<svg width="1040" height="720" xmlns="http://www.w3.org/2000/svg" xmlns:xlink="http://www.w3.org/1999/xlink" overflow="hidden"><defs><clipPath id="clip0"><rect x="0" y="0" width="1040" height="720"/></clipPath><clipPath id="clip1"><rect x="488" y="328" width="63" height="64"/></clipPath><clipPath id="clip2"><rect x="488" y="328" width="63" height="64"/></clipPath><clipPath id="clip3"><rect x="488" y="328" width="63" height="64"/></clipPath><clipPath id="clip4"><rect x="730" y="328" width="63" height="64"/></clipPath><clipPath id="clip5"><rect x="730" y="328" width="63" height="64"/></clipPath><clipPath id="clip6"><rect x="730" y="328" width="63" height="64"/></clipPath><clipPath id="clip7"><rect x="247" y="328" width="63" height="64"/></clipPath><clipPath id="clip8"><rect x="247" y="328" width="63" height="64"/></clipPath><clipPath id="clip9"><rect x="247" y="328" width="63" height="64"/></clipPath><clipPath id="clip10"><rect x="371" y="208" width="65" height="64"/></clipPath><clipPath id="clip11"><rect x="371" y="208" width="65" height="64"/></clipPath><clipPath id="clip12"><rect x="371" y="208" width="65" height="64"/></clipPath><clipPath id="clip13"><rect x="603" y="208" width="65" height="64"/></clipPath><clipPath id="clip14"><rect x="603" y="208" width="65" height="64"/></clipPath><clipPath id="clip15"><rect x="603" y="208" width="65" height="64"/></clipPath><clipPath id="clip16"><rect x="371" y="456" width="65" height="64"/></clipPath><clipPath id="clip17"><rect x="371" y="456" width="65" height="64"/></clipPath><clipPath id="clip18"><rect x="371" y="456" width="65" height="64"/></clipPath><clipPath id="clip19"><rect x="603" y="456" width="65" height="64"/></clipPath><clipPath id="clip20"><rect x="603" y="456" width="65" height="64"/></clipPath><clipPath id="clip21"><rect x="603" y="456" width="65" height="64"/></clipPath></defs><g clip-path="url(#clip0)"><rect x="0" y="0" width="1040" height="720" fill="#0095D9"/><path d="M275 274.001C275 250.252 294.252 231 318.001 231L720.999 231C744.748 231 764 250.252 764 274.001L764 445.999C764 469.748 744.748 489 720.999 489L318.001 489C294.252 489 275 469.748 275 445.999Z" stroke="#FFFFFF" stroke-width="4" stroke-miterlimit="8" fill="none" fill-rule="evenodd"/><path d="M339 91.6671C339 79.7007 348.701 70 360.667 70L447.333 70C459.299 70 469 79.7007 469 91.6671L469 178.333C469 190.299 459.299 200 447.333 200L360.667 200C348.701 200 339 190.299 339 178.333Z" fill="#FFFFFF" fill-rule="evenodd"/><path d="M571 91.6671C571 79.7007 580.701 70 592.667 70L679.333 70C691.299 70 701 79.7007 701 91.6671L701 178.333C701 190.299 691.299 200 679.333 200L592.667 200C580.701 200 571 190.299 571 178.333Z" fill="#FFFFFF" fill-rule="evenodd"/><path d="M339 541.667C339 529.701 348.701 520 360.667 520L447.333 520C459.299 520 469 529.701 469 541.667L469 628.333C469 640.299 459.299 650 447.333 650L360.667 650C348.701 650 339 640.299 339 628.333Z" fill="#FFFFFF" fill-rule="evenodd"/><path d="M571 540.667C571 528.701 580.701 519 592.667 519L679.333 519C691.299 519 701 528.701 701 540.667L701 628.333C701 640.299 691.299 650 679.333 650L592.667 650C580.701 650 571 640.299 571 628.333Z" fill="#FFFFFF" fill-rule="evenodd"/><path d="M111 316.667C111 304.701 120.701 295 132.667 295L219.333 295C231.299 295 241 304.701 241 316.667L241 403.333C241 415.299 231.299 425 219.333 425L132.667 425C120.701 425 111 415.299 111 403.333Z" fill="#FFFFFF" fill-rule="evenodd"/><path d="M799 316.667C799 304.701 808.701 295 820.667 295L907.333 295C919.299 295 929 304.701 929 316.667L929 403.333C929 415.299 919.299 425 907.333 425L820.667 425C808.701 425 799 415.299 799 403.333Z" fill="#FFFFFF" fill-rule="evenodd"/><path d="M316 301.334C316 285.133 329.133 272 345.334 272L463.666 272C479.867 272 493 285.133 493 301.334L493 418.666C493 434.867 479.867 448 463.666 448L345.334 448C329.133 448 316 434.867 316 418.666Z" fill="#FFFFFF" fill-rule="evenodd"/><path d="M547 300.501C547 284.208 560.208 271 576.501 271L694.499 271C710.792 271 724 284.208 724 300.501L724 418.499C724 434.792 710.792 448 694.499 448L576.501 448C560.208 448 547 434.792 547 418.499Z" fill="#FFFFFF" fill-rule="evenodd"/><g clip-path="url(#clip1)"><g clip-path="url(#clip2)"><g clip-path="url(#clip3)"><path d="M12.6656 7.21875 50.3344 31.5 12.6656 55.7812Z" fill="#FFFFFF" transform="matrix(1 0 0 1.01587 488 328)"/></g></g></g><g clip-path="url(#clip4)"><g clip-path="url(#clip5)"><g clip-path="url(#clip6)"><path d="M12.6656 7.21875 50.3344 31.5 12.6656 55.7812Z" transform="matrix(1 0 0 1.01587 730 328)"/></g></g></g><g clip-path="url(#clip7)"><g clip-path="url(#clip8)"><g clip-path="url(#clip9)"><path d="M12.6656 7.21875 50.3344 31.5 12.6656 55.7812Z" transform="matrix(1 0 0 1.01587 247 328)"/></g></g></g><g clip-path="url(#clip10)"><g clip-path="url(#clip11)"><g clip-path="url(#clip12)"><path d="M12.6656 7.21875 50.3344 31.5 12.6656 55.7812Z" transform="matrix(6.12323e-17 1 -1.01587 6.22043e-17 436 208)"/></g></g></g><g clip-path="url(#clip13)"><g clip-path="url(#clip14)"><g clip-path="url(#clip15)"><path d="M12.6656 7.21875 50.3344 31.5 12.6656 55.7812Z" transform="matrix(6.12323e-17 1 -1.01587 6.22043e-17 668 208)"/></g></g></g><g clip-path="url(#clip16)"><g clip-path="url(#clip17)"><g clip-path="url(#clip18)"><path d="M12.6656 7.21875 50.3344 31.5 12.6656 55.7812Z" transform="matrix(6.12323e-17 1 -1.01587 6.22043e-17 436 456)"/></g></g></g><g clip-path="url(#clip19)"><g clip-path="url(#clip20)"><g clip-path="url(#clip21)"><path d="M12.6656 7.21875 50.3344 31.5 12.6656 55.7812Z" transform="matrix(6.12323e-17 1 -1.01587 6.22043e-17 668 456)"/></g></g></g></g></svg>